<?xml version="1.0" encoding="UTF-8"?>
<svg id="Layer_1" xmlns="http://www.w3.org/2000/svg" version="1.1" viewBox="0 0 85.83 85.83">
  <!-- Generator: Adobe Illustrator 29.2.1, SVG Export Plug-In . SVG Version: 2.1.0 Build 116)  -->
  <path d="M74.04,17.95s-.05-.06-.07-.09h0s.04.05.06.09ZM73.12,18.35s0,.02.02.03c.02.02.04.05.06.07-.04-.06-.07-.1-.07-.1ZM85.83,42.92c0,23.66-19.25,42.92-42.92,42.92S0,66.58,0,42.92,19.25,0,42.92,0s42.92,19.25,42.92,42.92ZM84.83,42.92C84.83,19.8,66.03,1,42.92,1S1,19.8,1,42.92s18.8,41.92,41.92,41.92,41.92-18.8,41.92-41.92ZM82.85,42.92c0,17.04-10.73,31.6-25.78,37.33-.14.05-.27.11-.41.16-.02,0-.04.02-.06.02-3.78,1.47-8.16,2.5-13.06,2.5-.22,0-.44,0-.66,0-1.14-.02-2.36-.11-3.62-.25-5.87-.54-11.37-2.35-16.23-5.15-.08-.05-.16-.09-.23-.14-.22-.13-.44-.26-.67-.39-1.82-1.08-3.54-2.32-5.13-3.74-8.57-7.33-14.02-18.21-14.02-30.34C2.99,20.9,20.9,2.99,42.92,2.99c12.53,0,23.73,5.81,31.06,14.87.02.03.05.06.07.09,5.5,6.84,8.8,15.52,8.8,24.97ZM8.86,59.6c-2.25-10.19,2.1-22.01,10.64-28.82.47-.38,11.62-9.17,16.87-5.26,5.07,3.77,1.37,16.06-3.59,30.54-1.04,3.03-2.18,6.36-2.64,8.29,1.03-1.31,2.67-3.69,4.82-6.78l1.46-2.1c12.41-17.91,13.28-18.42,14.96-17.73,1.89.78,1.24,3.96.16,9.22-1.3,6.34-3.09,15.03.56,17.89,4.02,3.15,14.72-.94,20.81-7.96,8.63-9.95,6.81-24.95,2.76-32.64-1.02-1.72-2.36-3.78-2.99-4.74-.1-.15-.18-.27-.25-.38-6.96-8.61-17.6-14.13-29.51-14.13C22,4.99,4.99,22,4.99,42.92c0,5.98,1.4,11.65,3.88,16.68ZM79.27,53.05c.77-2.8,1.21-5.69,1.32-8.59-.77,4.87-2.67,9.68-6.18,13.72-6.24,7.2-18.14,12.47-23.55,8.23-4.62-3.62-2.77-12.63-1.28-19.86.5-2.43,1.17-5.68.99-6.79-1.64,1.25-7.06,8.97-12.5,16.83l-1.45,2.1c-5.65,8.17-6.37,9.21-7.8,8.59-1.66-.72-.88-3.25,2.08-11.88,3.21-9.38,8.6-25.08,4.29-28.29-.57-.43-1.31-.61-2.16-.61-3.56,0-9.04,3.26-12.27,5.84-8.03,6.4-12.09,17.52-9.9,27.04,1.16,5.02,3.81,9.03,7.22,12.16,1.94,1.78,4.13,3.28,6.44,4.52,4.85,2.6,10.22,4.07,14.9,4.61,1.22.14,2.39.22,3.49.24,4.92.09,9.33-.93,13.09-2.4,6.15-2.41,10.57-6.04,12.7-8.04,3.55-3.34,8.27-9.07,10.57-17.42ZM38.13,22.68c1.31,0,2.37-1.06,2.37-2.37s-1.06-2.37-2.37-2.37-2.37,1.06-2.37,2.37,1.06,2.37,2.37,2.37ZM52.29,35.59c.92,0,1.67-.75,1.67-1.67s-.75-1.67-1.67-1.67-1.67.75-1.67,1.67.75,1.67,1.67,1.67ZM3.45,48.03"/>
</svg>